<?xml version="1.0" encoding="utf-8"?>
<!-- Generator: Adobe Illustrator 24.0.0, SVG Export Plug-In . SVG Version: 6.00 Build 0)  -->
<svg version="1.1" xmlns="http://www.w3.org/2000/svg" xmlns:xlink="http://www.w3.org/1999/xlink" x="0px" y="0px"
	 viewBox="0 0 7.4 12" style="enable-background:new 0 0 7.4 12;" xml:space="preserve">
<style type="text/css">
	.st0{display:none;}
	.st1{display:inline;}
	.st2{display:inline;fill:#E7B400;}
</style>
<g id="Layer_2">
	<path d="M5.3,0.7C4.8,1.1,3,2.9,0.7,5.3c0,0-0.3,0.3-0.3,0.7s0.2,0.7,0.3,0.8c0.1,0.1,4.6,4.5,4.6,4.5s0.4,0.3,0.8,0.2
		c0.2,0,0.3,0,0.4-0.1c0.3-0.1,0.4-0.3,0.4-0.3c0.2-0.3,0.2-0.7,0.2-0.8c0-0.4-0.4-0.7-0.5-0.8C6,9,4.8,7.7,3.1,6
		c1.3-1.3,2.6-2.6,3.8-3.9c0-0.1,0.3-0.4,0.2-0.9C7,0.9,6.8,0.7,6.7,0.7C6.7,0.6,6.4,0.4,6,0.4C5.7,0.4,5.4,0.6,5.3,0.7z"/>
</g>
<g id="Layer_3">
	<path d="M0.7,5.2l4.4-4.4c0.4-0.4,1.2-0.4,1.6,0l0,0c0.4,0.4,0.4,1.2,0,1.6L2.3,6.8c-0.4,0.4-1.2,0.4-1.6,0l0,0
		C0.3,6.4,0.3,5.6,0.7,5.2z"/>
	<path d="M2.3,5.2l4.4,4.4c0.4,0.4,0.4,1.2,0,1.6l0,0c-0.4,0.4-1.2,0.4-1.6,0L0.7,6.8c-0.4-0.4-0.4-1.2,0-1.6l0,0
		C1.2,4.7,1.9,4.7,2.3,5.2z"/>
</g>
<g id="Layer_1" class="st0">
	<path id="ic_chevron_right_24px" class="st1" d="M5.7,11.5c0.3,0.1,0.5,0,0.6,0s0.3-0.1,0.4-0.3c0-0.1,0.2-0.2,0.3-0.6
		c0-0.1,0-0.2,0-0.4C6.9,10,6.8,9.8,6.7,9.8C6.4,9.6,4.9,8.1,2.8,6C5,3.9,6.5,2.3,6.7,2.1c0,0,0.1-0.1,0.1-0.2c0,0,0.1-0.2,0.1-0.4
		C7,1.2,6.8,0.8,6.8,0.8C6.6,0.6,6.3,0.4,6,0.4S5.4,0.6,5.3,0.7C4.7,1.2,3,2.9,0.7,5.3C0.6,5.4,0.5,5.5,0.5,5.6S0.4,5.8,0.4,6
		c0,0.1,0,0.2,0,0.3c0,0.1,0.1,0.2,0.1,0.2c0,0.1,0.1,0.1,0.1,0.2C3.2,9.2,5,11,5.3,11.3C5.3,11.3,5.5,11.5,5.7,11.5z"/>
	<circle class="st2" cx="1.5" cy="6" r="1.1"/>
	<circle class="st2" cx="6" cy="1.5" r="1.1"/>
	<circle class="st2" cx="6" cy="10.4" r="1.1"/>
</g>
</svg>
