<svg xmlns="http://www.w3.org/2000/svg" viewBox="0 0 54.49 54.49"><defs><style>.cls-1{fill:#000;}.cls-2{fill:#FDFAF2;}</style></defs><title>Asset 2</title><g id="Layer_2" data-name="Layer 2"><g id="Design"><path class="cls-1" d="M27.25,54.49A27.25,27.25,0,1,1,54.49,27.25,27.27,27.27,0,0,1,27.25,54.49Z"/><path class="cls-2" d="M37.59,22.76c-7.45,0-7.46,7.42-7.46,7.46s-.51,7.43,7.46,7.43c0,0,6,.34,6.59-4.39a.69.69,0,0,0-.69-.78H41.41a.68.68,0,0,0-.66.48c-.18.62-.82,1.61-3,1.61A3.15,3.15,0,0,1,34.35,32a.7.7,0,0,1,.69-.8H43.7a.69.69,0,0,0,.69-.66C44.46,28.53,44.09,22.76,37.59,22.76Zm-2.82,5.83a.41.41,0,0,1-.39-.53,3.32,3.32,0,0,1,3.28-2.45,2.75,2.75,0,0,1,2.92,2.52.4.4,0,0,1-.4.46Zm-8.94-1.73a.29.29,0,0,1,0-.53A3.42,3.42,0,0,0,27.59,23c0-3.47-2.42-5.17-5.49-5.17H12.5a.51.51,0,0,0-.51.51v18.4a.51.51,0,0,0,.51.51h9.6s6.17.19,6.17-5.74C28.27,31.5,28.47,27.74,25.83,26.86Zm-9.38-5.22a.36.36,0,0,1,.36-.37H22.1s1.37,0,1.37,2-.81,2.32-1.72,2.32H16.81a.37.37,0,0,1-.36-.37Zm5.36,12.15h-5a.36.36,0,0,1-.36-.37V29a.37.37,0,0,1,.36-.37H22.1s2,0,2,2.68C24.14,33.54,22.62,33.77,21.81,33.79ZM33.41,18.6v1.66a.36.36,0,0,0,.37.36h7.28a.36.36,0,0,0,.36-.36V18.6a.36.36,0,0,0-.36-.37H33.78A.36.36,0,0,0,33.41,18.6Z"/></g></g></svg>