<svg xmlns="http://www.w3.org/2000/svg" viewBox="0 0 54.49 54.49"><defs><style>.cls-1{fill:#000;}.cls-2{fill:#FDFAF2;}</style></defs><title>Asset 3</title><g id="Layer_2" data-name="Layer 2"><g id="Design"><path class="cls-1" d="M27.25,54.49A27.25,27.25,0,1,1,54.49,27.25,27.27,27.27,0,0,1,27.25,54.49Z"/><path class="cls-2" d="M42.65,29.32V39.49a.45.45,0,0,1-.46.46H36.94a.45.45,0,0,1-.45-.46V30c0-2.49-.89-4.19-3.12-4.19a3.36,3.36,0,0,0-3.16,2.26A4,4,0,0,0,30,29.6v9.89a.45.45,0,0,1-.45.46H24.3a.45.45,0,0,1-.46-.46c0-2.52.07-14.74,0-17.61a.45.45,0,0,1,.46-.46h5.24a.45.45,0,0,1,.45.45V24l0,.06h0V24A6.12,6.12,0,0,1,35.56,21c4,0,7.09,2.65,7.09,8.34ZM14.73,40H20a.45.45,0,0,0,.45-.46V21.87a.45.45,0,0,0-.45-.45H14.73a.46.46,0,0,0-.46.45V39.49A.46.46,0,0,0,14.73,40Z"/><circle class="cls-2" cx="17.17" cy="15.76" r="3.3"/></g></g></svg>