<svg xmlns="http://www.w3.org/2000/svg" viewBox="0 0 514.9 680.24"><title>Asset 1</title><g id="Layer_2" data-name="Layer 2"><g id="Layer_1-2" data-name="Layer 1"><g id="dFoN90.tif"><path d="M502.74,53.12c-3.09,9.22-2.95,7.8-10.54,27.25C482.56,105,481,108.9,478,115.41c-6.16,13.08-12,24.13-12,24.13-2,3.7-4,7.38-5.86,11.12-3,6-5.94,12-8.71,18-.23.48,1.05,2.37,1.52,2.33a11.31,11.31,0,0,0,5.07-1.41c3.3-2.19,6.17-5,9.52-7.12q16.71-10.31,33.68-20.19a15.64,15.64,0,0,1,6.92-1.95c5.77-.26,8.28,3.86,5.92,9-1.2,2.57-1.46,5.9-3.29,7.74-2.35,2.36-5.87,2.14-7.29,2.15-3.1,0-9.64,2.4-22.72,7.15-9.93,3.61-18.62,9-36,19.69a22.94,22.94,0,0,0-6,5.11,22.53,22.53,0,0,0-3.68,6.53c-.22.58-3.63,6.53-10.47,18.42-3.77,6.57-7.65,13.08-11.41,19.65-2.74,4.79-5.44,9.61-8,14.48-3.84,7.17-7.79,14.29-11.31,21.62-5.15,10.75-9.84,21.71-15,32.47-2.06,4.35-4.84,8.35-7.13,12.6s-4.5,8.59-6.5,13c-.45,1,.08,2.44.22,4.69,12.83-2.16,25-4.75,37.26-6.08,8.28-.9,16.74-.08,25.12.08,6.16.12,12.36.12,18.47.79,2.27.25,5.34,1.77,6.2,3.59.71,1.46-.84,4.68-2.28,6.36-5.07,5.89-11.29,10.15-18.3,13.83-10.49,5.53-20.16,12.6-30.27,18.89S381,384.54,370.77,390.94c-7.71,4.84-15.25,10-22.89,14.91-5.58,3.63-11.18,7.24-16.81,10.78a22.79,22.79,0,0,0-6,6.5,26,26,0,0,0-2.39,4.67c-2.7,6.74-4,13.22-6,20.19-1.56,5.43-2,5.27-6,18.39-.58,1.92-1.05,3.61-1.86,6.53-3.74,13.52-4.93,18.92-8.67,22.35-.8.73-2.88,2.65-4.95,2.11a3.46,3.46,0,0,1-1.72-1.11,12.65,12.65,0,0,1-3.08-7.58A52,52,0,0,1,292,475.07c1.84-6.77,2.51-8.19,4.67-15.43.88-3,1.48-5.43,1.93-7.52.22-1,.4-1.94.59-2.85,1-4.76,1.08-5.67,1.51-7.65,1.33-6.2,2.32-6.76,1.79-7.38-1.85-2.13-13,5.41-31.36,15.08-1.16.61-4,2-7.67,4.15-5,2.95-7.14,4.75-10.95,6.39-11.1,4.79-13.4,15.66-18.45,24.66-5.42,9.64-10.55,19.45-16,29.08-3.5,6.19-7.33,12.18-11,18.27-4.78,8-9.14,16.21-14.41,23.84-6.29,9.09-13.46,17.58-20,26.49-4.5,6.1-8.31,12.73-13,18.66-5.32,6.69-11.19,13-17,19.24-7.47,8-15.65,15.46-22.57,23.93-5.68,6.93-13.44,11-19.69,16.87-6.53,6.13-14.48,9.41-21.74,14-3.13,2-7.35,2.19-11,3.37a20,20,0,0,0-3.55,2H62c-3.57-2.08-7.74-3.55-10.58-6.37a116.55,116.55,0,0,1-12.37-15.16c-2.13-3-4.32-6.48-4.83-10C33,640.11,32.59,631.36,32,622.66c-.2-3.26-1-5.59-4.83-5.37-4.93.29-9.86.69-14.79.93-5.19.25-9.58-1.29-12.42-6v-1c1.46-8.13,8.6-11.57,14-16.23a289.16,289.16,0,0,1,26.49-20.74c13-8.88,24.68-19.75,39.16-26.48,2.57-1.19,4.72-3.28,7.12-4.88,9.07-6,18-12.33,27.29-18,6.75-4.13,14.06-7.32,21-11.18,8.78-4.9,17.39-10.08,26.11-15.09,9-5.18,18-10.47,27.17-15.38,9.69-5.19,19.69-9.81,29.37-15,6.2-3.33,12.18-7.12,18-11a38.12,38.12,0,0,0,5.13-5.69c7.58-9.62,9.2-17.69,15.33-32.81,2.77-6.85,5.14-11.86,6.83-15.43,5.41-11.39,8.95-23.59,13.68-35.28.44-1.09,1.55-3.78.34-5.39-.79-1.05-2.37-1.52-4.72-1.27-8.92,1-17.8,2.42-26.65,4-8.4,1.45-16.73,3.3-25.11,4.9q-11.06,2.12-22.16,4.06c-9.62,1.7-19.28,3.19-28.87,5-6.54,1.25-12.94,3.21-19.48,4.38-19.76,3.56-23.2,6.27-29.14,4.4-2.59-.81-7-2.21-7.58-5.05-.91-4.89,10.61-10.12,29.51-20.05,0,0,26.59-14,55.93-31.75.23-.14,7.78-5.36,23.6-14.61,9.88-5.79,19.84-11.34,29.2-18.07s20-12.16,30-18.17c4-2.41,8-5,12-7.34,4.59-2.7,9.27-5.23,13.83-8a4.19,4.19,0,0,0,1.59-2.32c3.05-10.73,6.13-21.45,9-32.23,2.3-8.63,4.7-17.27,6.32-26.05,2-10.76,3.37-21.64,4.67-32.51,1-8.17,1.53-16.4,2.06-24.62.26-4-.06-8,.11-12,.12-2.76-.06-5.9,1.2-8.13,1.05-1.87,4-3.79,6.08-3.73,4.09.11,6.07,3.62,6.33,7.37.39,5.65.22,11.34.21,17,0,3,0,6.07-.3,9.08-1,10.28-1.34,16.1-2.35,26.1-1.78,17.78-.75,15.52-2.22,26.64-1.85,14-2.85,20.93-2.88,21.19-.41,3.08-.92,6.16-1.08,9.26,0,.93.94,2.73,1.45,2.73,2,0,4.41,0,6.07-1,4.72-2.85,9.08-6.3,13.72-9.29,8.56-5.53,17.17-11,25.88-16.33,8.4-5.11,17.46-9.28,25.3-15.12,8.51-6.34,19.17-10.19,24.92-19.88,2.79-4.69,4.8-9.84,7.46-14.62,4.76-8.54,10.17-16.74,14.53-25.48,5.9-11.84,11.15-24,16.52-36.1,8.57-19.31,4.62-10.87,15.23-35.22,4.61-10.6,8.57-19.69,11.52-29.57,2.53-8.43,7.32-27.65,4.16-28.95-5-2.07-26.55,42.32-28.13,41.51-.91-.47,5-16,15.85-31.68,5.54-8.07,15.64-22.77,19.93-21C516.21,2.57,509.42,33.26,502.74,53.12ZM229.05,475.63l-1.59-1.91C156,512.12,84.77,550.78,22.1,603.79a68.51,68.51,0,0,0,16.43-1.39c8.75-1.79,13.77,2,11.24,9.65a73.52,73.52,0,0,0-3.6,19.9c-.48,9.38.77,17.55,6.26,25.56,6.67,9.71,14.73,10.85,23.65,6,7.9-4.29,15.26-9.6,22.73-14.65,4.19-2.84,8.56-5.64,12.09-9.21,7.77-7.87,15.18-16.11,22.52-24.39,8.15-9.22,16.13-18.59,24-28,2.71-3.24,4.88-6.93,7.43-10.32,5.65-7.52,11.57-14.86,17-22.53,4.1-5.77,7.6-12,11.43-17.93,6-9.41,12.22-18.72,18.09-28.23,2.26-3.66,3.68-7.82,5.75-11.6C221,489.57,225.08,482.62,229.05,475.63Zm189.51-268c-.38-.5-.76-1-1.15-1.51a15.65,15.65,0,0,0-3.88,1.19q-17.5,10.86-34.92,21.89c-12.11,7.65-24.17,15.37-36.31,23-3.57,2.23-7.62,3.8-8.24,8.82-.94,7.63-2.15,15.23-3,22.87-.49,4.23-.43,8.52-.81,12.76-.18,2.08-1,4.11-1.2,6.19-.7,5.71-1.2,11.45-1.9,17.16-.62,5-1.5,10-2.1,15.07-.48,3.94,1.74,5.46,5.37,5.19,2.44-.19,4.85-.81,7.29-.94,6.35-.35,11.42-2.77,14.47-8.57q8.49-16.14,16.87-32.34c3.79-7.31,7.39-14.72,11.33-21.95,4.27-7.86,9-15.49,13.21-23.37,3.84-7.13,7.08-14.58,11-21.67C409,223.32,413.88,215.52,418.56,207.61ZM146.72,371.52l.57,1.67c1.21-.14,2.44-.18,3.62-.43,8.75-1.82,17.47-3.77,26.23-5.49,7.08-1.39,14.21-2.47,21.31-3.75,7.71-1.4,15.39-2.93,23.11-4.26,5.33-.92,10.72-1.48,16.05-2.41,10.26-1.79,20.52-3.6,30.73-5.65,12.06-2.41,16.47-2.58,17.7-14.53a6.63,6.63,0,0,1,.43-1.4c4.36-12.71,8.8-25.4,13.07-38.15,1.6-4.77,3-9.63,4.14-14.52.35-1.41-.28-3.06-.46-4.6-1.47.29-3,.53-4.4.89a6.08,6.08,0,0,0-1.77.83c-7.72,5-15.39,10.14-23.16,15.08-15.43,9.8-30.79,19.73-46.43,29.18-13.38,8.07-27.19,15.42-40.66,23.34S160.07,363.44,146.72,371.52Zm164.44-11c1-5.67-.85-7.12-6.33-5.73a54.36,54.36,0,0,1-9.93,2c-5.15.31-7.62,2.81-9,7.67-2.2,7.73-4.89,15.33-7.66,22.89-2.57,7-5.6,13.85-8.26,20.83-2.23,5.86-4,11.93-6.39,17.71-2.32,5.5-5.33,10.7-7.85,16.12a4.48,4.48,0,0,0,.09,3.52c.26.48,2.24.57,3.09.14q8.68-4.41,17.2-9.15c5.45-3,10.61-6.66,16.26-9.22,7.41-3.36,13-6.84,13-16.64s2.38-19.86,3.6-29.8C309.77,374.14,310.42,367.34,311.16,360.55Zm118.44-19.8-1-1.72c-8.07.4-16.15.61-24.2,1.26-7.39.61-14.75,1.61-22.1,2.62-6.62.9-13.18,2.61-19.81,2.87-3.5.14-6.42-.11-8,3.43q-4.86,11.15-9.44,22.41c-1.75,4.29-3.09,8.75-4.88,13-2.43,5.78-5.1,11.46-8.3,18.59,3.3-1.42,5.9-2.2,8.12-3.58,3.43-2.15,6.46-4.92,9.9-7,10.09-6.25,20.29-12.31,30.45-18.44,6.81-4.11,14.23-7.49,20.28-12.51a105.45,105.45,0,0,1,21.56-14C425.11,346.27,427.16,343.11,429.6,340.75Zm-135.18,5c6.2-1,11.45-1.33,16.35-2.82,1.64-.51,2.58-3.83,3.5-6,.52-1.25.31-2.8.5-4.21C315.84,325,317,317.2,318,309.42s2.1-15.49,2.92-23.25c.67-6.43,1-12.89,1.48-19.33l-2.47-.73c-1.63,2.54-3.81,4.89-4.75,7.66-1.49,4.39-1.94,9.11-3.2,13.59-1.46,5.22-3.25,10.36-5,15.5-2.46,7.23-5.29,14.34-7.46,21.65C297.55,331.11,296.26,337.91,294.42,345.77Zm47.46,3.47c-3.25,0-4.91-.09-6.56,0-9.42.63-13.05,4.13-14.14,12.31-1.71,12.81-2.49,25.75-3.67,38.63l1.26.69C326.78,384.17,335.1,367.59,341.88,349.24Z"/></g></g></g></svg>